<?xml version="1.0" encoding="UTF-8"?>
<svg id="Capa_1" xmlns="http://www.w3.org/2000/svg" version="1.1" xmlns:xlink="http://www.w3.org/1999/xlink" viewBox="0 0 512 512">
  <!-- Generator: Adobe Illustrator 29.8.2, SVG Export Plug-In . SVG Version: 2.1.1 Build 3)  -->
  <defs>
    <style>
      .st0 {
        fill: url(#Degradado_sin_nombre_55);
        fill-rule: evenodd;
      }
    </style>
    <linearGradient id="Degradado_sin_nombre_55" data-name="Degradado sin nombre 55" x1="256" y1="477.87" x2="256" y2="34.13" gradientUnits="userSpaceOnUse">
      <stop offset="0" stop-color="#698e43"/>
      <stop offset=".52" stop-color="#79ac45"/>
      <stop offset="1" stop-color="#92bb67"/>
    </linearGradient>
  </defs>
  <path class="st0" d="M153.6,34.13c9.43,0,17.07,7.64,17.07,17.07v17.07h170.67v-17.07c0-9.43,7.64-17.07,17.07-17.07s17.07,7.64,17.07,17.07v17.07h51.2c28.28,0,51.2,22.92,51.2,51.2v307.2c0,28.28-22.92,51.2-51.2,51.2H85.33c-28.28,0-51.2-22.92-51.2-51.2V119.47c0-28.28,22.92-51.2,51.2-51.2h51.2v-17.07c0-9.43,7.64-17.07,17.07-17.07ZM341.33,102.4v17.07c0,9.43,7.64,17.07,17.07,17.07s17.07-7.64,17.07-17.07v-17.07h51.2c9.43,0,17.07,7.64,17.07,17.07v51.2H68.27v-51.2c0-9.43,7.64-17.07,17.07-17.07h51.2v17.07c0,9.43,7.64,17.07,17.07,17.07s17.07-7.64,17.07-17.07v-17.07h170.67ZM68.27,204.8v221.87c0,9.43,7.64,17.07,17.07,17.07h341.33c9.43,0,17.07-7.64,17.07-17.07v-221.87H68.27ZM238.93,256c0-9.43,7.64-17.07,17.07-17.07s17.07,7.64,17.07,17.07-7.64,17.07-17.07,17.07-17.07-7.64-17.07-17.07ZM324.27,238.93c-9.43,0-17.07,7.64-17.07,17.07s7.64,17.07,17.07,17.07,17.07-7.64,17.07-17.07-7.64-17.07-17.07-17.07ZM375.47,256c0-9.43,7.64-17.07,17.07-17.07s17.07,7.64,17.07,17.07-7.64,17.07-17.07,17.07-17.07-7.64-17.07-17.07ZM392.53,307.2c-9.43,0-17.07,7.64-17.07,17.07s7.64,17.07,17.07,17.07,17.07-7.64,17.07-17.07-7.64-17.07-17.07-17.07ZM307.2,324.27c0-9.43,7.64-17.07,17.07-17.07s17.07,7.64,17.07,17.07-7.64,17.07-17.07,17.07-17.07-7.64-17.07-17.07ZM256,307.2c-9.43,0-17.07,7.64-17.07,17.07s7.64,17.07,17.07,17.07,17.07-7.64,17.07-17.07-7.64-17.07-17.07-17.07ZM170.67,324.27c0-9.43,7.64-17.07,17.07-17.07s17.07,7.64,17.07,17.07-7.64,17.07-17.07,17.07-17.07-7.64-17.07-17.07ZM119.47,307.2c-9.43,0-17.07,7.64-17.07,17.07s7.64,17.07,17.07,17.07,17.07-7.64,17.07-17.07-7.64-17.07-17.07-17.07ZM102.4,392.53c0-9.43,7.64-17.07,17.07-17.07s17.07,7.64,17.07,17.07-7.64,17.07-17.07,17.07-17.07-7.64-17.07-17.07ZM187.73,375.47c-9.43,0-17.07,7.64-17.07,17.07s7.64,17.07,17.07,17.07,17.07-7.64,17.07-17.07-7.64-17.07-17.07-17.07ZM238.93,392.53c0-9.43,7.64-17.07,17.07-17.07s17.07,7.64,17.07,17.07-7.64,17.07-17.07,17.07-17.07-7.64-17.07-17.07ZM324.27,375.47c-9.43,0-17.07,7.64-17.07,17.07s7.64,17.07,17.07,17.07,17.07-7.64,17.07-17.07-7.64-17.07-17.07-17.07Z"/>
</svg>